<?xml version="1.0" encoding="UTF-8" standalone="no"?>
<!-- Created with Inkscape (http://www.inkscape.org/) -->

<svg
   xmlns:dc="http://purl.org/dc/elements/1.1/"
   xmlns:cc="http://creativecommons.org/ns#"
   xmlns:rdf="http://www.w3.org/1999/02/22-rdf-syntax-ns#"
   xmlns:svg="http://www.w3.org/2000/svg"
   xmlns="http://www.w3.org/2000/svg"
   xmlns:sodipodi="http://sodipodi.sourceforge.net/DTD/sodipodi-0.dtd"
   xmlns:inkscape="http://www.inkscape.org/namespaces/inkscape"
   width="77.60714mm"
   height="77.60714mm"
   viewBox="0 0 77.60714 77.60714"
   version="1.1"
   id="svg8"
   inkscape:version="0.92.4 (5da689c313, 2019-01-14)"
   sodipodi:docname="P H.svg">
  <defs
     id="defs2" />
  <sodipodi:namedview
     id="base"
     pagecolor="#ffffff"
     bordercolor="#666666"
     borderopacity="1.0"
     inkscape:pageopacity="0.0"
     inkscape:pageshadow="2"
     inkscape:zoom="1.4"
     inkscape:cx="132.70775"
     inkscape:cy="146.6591"
     inkscape:document-units="mm"
     inkscape:current-layer="layer1"
     showgrid="true"
     inkscape:window-width="1366"
     inkscape:window-height="705"
     inkscape:window-x="-8"
     inkscape:window-y="-8"
     inkscape:window-maximized="1"
     showguides="true"
     inkscape:snap-global="false">
    <inkscape:grid
       type="xygrid"
       id="grid914"
       spacingx="39.687499"
       spacingy="39.687499"
       empspacing="0"
       originx="-0.66145832"
       originy="-1.0583333" />
  </sodipodi:namedview>
  <metadata
     id="metadata5">
    <rdf:RDF>
      <cc:Work
         rdf:about="">
        <dc:format>image/svg+xml</dc:format>
        <dc:type
           rdf:resource="http://purl.org/dc/dcmitype/StillImage" />
        <dc:title></dc:title>
      </cc:Work>
    </rdf:RDF>
  </metadata>
  <g
     inkscape:label="Layer 1"
     inkscape:groupmode="layer"
     id="layer1"
     transform="translate(-69.297623,-110.02975)">
    <rect
       style="opacity:1;fill:#ffffff;fill-opacity:1;stroke:#000000;stroke-width:0.66844147;stroke-miterlimit:4;stroke-dasharray:none;stroke-opacity:1"
       id="rect817"
       width="10.611508"
       height="10.611508"
       x="48.65062"
       y="164.52513"
       ry="3.7566863e-06" />
    <rect
       ry="3.7566863e-06"
       y="178.67383"
       x="34.501938"
       height="10.611508"
       width="10.611508"
       id="rect821"
       style="opacity:1;fill:#ffff00;fill-opacity:1;stroke:#000000;stroke-width:0.66844147;stroke-miterlimit:4;stroke-dasharray:none;stroke-opacity:1" />
    <rect
       ry="3.7566863e-06"
       y="107.93037"
       x="34.501938"
       height="10.611508"
       width="10.611508"
       id="rect827"
       style="opacity:1;fill:#0060ff;fill-opacity:1;stroke:#000000;stroke-width:0.66844147;stroke-miterlimit:4;stroke-dasharray:none;stroke-opacity:1" />
    <rect
       style="opacity:1;fill:#40ffff;fill-opacity:1;stroke:#000000;stroke-width:0.66844147;stroke-miterlimit:4;stroke-dasharray:none;stroke-opacity:1"
       id="rect829"
       width="10.611508"
       height="10.611508"
       x="48.65062"
       y="107.93037"
       ry="3.7566863e-06" />
    <rect
       style="opacity:1;fill:#00ac00;fill-opacity:1;stroke:#000000;stroke-width:0.66844147;stroke-miterlimit:4;stroke-dasharray:none;stroke-opacity:1"
       id="rect831"
       width="10.611508"
       height="10.611508"
       x="34.501938"
       y="122.07906"
       ry="3.7566863e-06" />
    <rect
       ry="3.7566863e-06"
       y="122.07906"
       x="48.65062"
       height="10.611508"
       width="10.611508"
       id="rect833"
       style="opacity:1;fill:#80ff00;fill-opacity:1;stroke:#000000;stroke-width:0.66844147;stroke-miterlimit:4;stroke-dasharray:none;stroke-opacity:1" />
    <rect
       ry="3.7566863e-06"
       y="136.22775"
       x="34.501938"
       height="10.611508"
       width="10.611508"
       id="rect835"
       style="opacity:1;fill:#ff8000;fill-opacity:1;stroke:#000000;stroke-width:0.66844147;stroke-miterlimit:4;stroke-dasharray:none;stroke-opacity:1" />
    <rect
       style="opacity:1;fill:#ff40ff;fill-opacity:1;stroke:#000000;stroke-width:0.66844147;stroke-miterlimit:4;stroke-dasharray:none;stroke-opacity:1"
       id="rect837"
       width="10.611508"
       height="10.611508"
       x="48.65062"
       y="136.22775"
       ry="3.7566863e-06" />
    <rect
       style="opacity:1;fill:#ff2020;fill-opacity:1;stroke:#000000;stroke-width:0.66844147;stroke-miterlimit:4;stroke-dasharray:none;stroke-opacity:1"
       id="rect839"
       width="10.611508"
       height="10.611508"
       x="34.501938"
       y="150.37645"
       ry="3.7566863e-06" />
    <rect
       ry="3.7566863e-06"
       y="150.37645"
       x="48.65062"
       height="10.611508"
       width="10.611508"
       id="rect841"
       style="opacity:1;fill:#9b9b9b;fill-opacity:1;stroke:#000000;stroke-width:0.66844147;stroke-miterlimit:4;stroke-dasharray:none;stroke-opacity:1" />
    <rect
       ry="3.7566863e-06"
       y="164.52513"
       x="34.501938"
       height="10.611508"
       width="10.611508"
       id="rect843"
       style="opacity:1;fill:#8000ff;fill-opacity:1;stroke:#000000;stroke-width:0.66844147;stroke-miterlimit:4;stroke-dasharray:none;stroke-opacity:1" />
    <rect
       ry="3.7566863e-06"
       y="178.67383"
       x="48.65062"
       height="10.611508"
       width="10.611508"
       id="rect845"
       style="opacity:1;fill:#aa6414;fill-opacity:1;stroke:#000000;stroke-width:0.66844147;stroke-miterlimit:4;stroke-dasharray:none;stroke-opacity:1" />
    <g
       aria-label="B"
       style="font-style:normal;font-variant:normal;font-weight:normal;font-stretch:normal;font-size:15.09192276px;line-height:1.25;font-family:Magneto;-inkscape-font-specification:Magneto;text-align:center;letter-spacing:0px;word-spacing:0px;text-anchor:middle;fill:#000000;fill-opacity:1;stroke:none;stroke-width:0.35371694"
       id="text856">
      <path
         d="m 46.243008,110.04001 q 0,1.08325 -1.142211,2.0265 -0.685327,0.56742 -2.085456,1.25275 0.567421,0.98009 0.567421,1.77595 0,1.64331 -2.122302,2.4318 -1.518035,0.56006 -3.537169,0.56006 h -3.831934 l 2.660246,-7.5607 h 2.652878 l -2.262315,6.38164 h 0.375824 q 1.289593,0 2.181255,-0.29476 1.319069,-0.44952 1.319069,-1.46646 0,-0.32424 -0.294764,-0.77375 -0.294764,-0.45689 -0.294764,-0.66322 0,-0.10317 0.01474,-0.14738 0.147382,-0.32424 0.803232,-0.63375 0.9064,-0.43477 1.326439,-0.80323 0.707434,-0.61163 0.707434,-1.41487 0,-1.13484 -1.73174,-1.13484 h -8.62185 l 1.134842,-1.85701 h 8.599743 q 1.694894,0 2.54234,0.45688 1.039044,0.56006 1.039044,1.86439 z"
         style="font-style:normal;font-variant:normal;font-weight:normal;font-stretch:normal;font-family:Magneto;-inkscape-font-specification:Magneto;stroke-width:0.35371694"
         id="path4694" />
    </g>
    <g
       aria-label="C"
       style="font-style:normal;font-variant:normal;font-weight:normal;font-stretch:normal;font-size:15.09192276px;line-height:1.25;font-family:Magneto;-inkscape-font-specification:Magneto;text-align:center;letter-spacing:0px;word-spacing:0px;text-anchor:middle;fill:#000000;fill-opacity:1;stroke:none;stroke-width:0.35371694"
       id="text860">
      <path
         d="m 59.183157,109.5168 q 0,0.77376 -0.611636,1.30433 -0.582159,0.5011 -1.363284,0.5011 -0.788494,0 -1.378022,-0.5011 -0.611636,-0.53057 -0.611636,-1.30433 0,-0.25792 0.05895,-0.44215 -1.576988,0.0147 -2.866581,1.63594 -1.208533,1.53278 -1.208533,3.15398 0,3.04344 3.971947,3.04344 h 3.706659 q -0.228443,1.17906 -1.790692,1.17906 h -2.719199 q -2.542341,0 -4.126698,-0.73691 -2.173885,-1.01694 -2.151778,-3.30873 0.01474,-1.28222 0.788494,-2.56445 1.053782,-1.75385 2.991856,-2.77078 1.879121,-0.98746 3.994053,-0.98746 h 1.473821 q 0.714803,0 1.274855,0.54531 0.567421,0.54532 0.567421,1.25275 z"
         style="font-style:normal;font-variant:normal;font-weight:normal;font-stretch:normal;font-family:Magneto;-inkscape-font-specification:Magneto;stroke-width:0.35371694"
         id="path4691" />
    </g>
    <g
       aria-label="F"
       style="font-style:normal;font-variant:normal;font-weight:normal;font-stretch:normal;font-size:15.09192276px;line-height:1.25;font-family:Magneto;-inkscape-font-specification:Magneto;text-align:center;letter-spacing:0px;word-spacing:0px;text-anchor:middle;fill:#000000;fill-opacity:1;stroke:none;stroke-width:0.35371694"
       id="text864">
      <path
         d="m 47.296797,122.12009 -1.134842,1.85701 h -2.608662 l -1.223271,3.50033 h 2.372851 q -0.103167,1.16432 -1.407499,1.17906 l -1.385391,0.0147 -0.57479,1.62858 q -0.766387,2.18862 -3.03607,2.18862 h -5.158372 q 0.32424,-0.82534 0.567421,-1.17169 0.427408,-0.61163 1.002198,-0.61163 0.08843,0 0.184227,0.0147 l 3.441371,0.54532 2.54971,-7.28805 h -4.215127 q -0.950614,0 -1.709632,0.55269 -0.825339,0.60426 -0.825339,1.51803 0,0.63375 0.427408,0.72217 0.140012,-0.68532 0.722172,-1.09799 0.545313,-0.39793 1.252747,-0.39793 0.766387,0 1.326439,0.47162 0.604266,0.5011 0.604266,1.29696 0,0.88429 -0.722172,1.37802 -0.619005,0.42741 -1.540143,0.42741 -1.422236,0 -2.365482,-0.66322 -1.046412,-0.74428 -1.046412,-2.04861 0,-1.95281 1.547511,-3.05081 1.363284,-0.96535 3.389788,-0.96535 z"
         style="font-style:normal;font-variant:normal;font-weight:normal;font-stretch:normal;font-family:Magneto;-inkscape-font-specification:Magneto;stroke-width:0.35371694"
         id="path4688" />
    </g>
    <g
       aria-label="L"
       style="font-style:normal;font-variant:normal;font-weight:normal;font-stretch:normal;font-size:15.09192276px;line-height:1.25;font-family:Magneto;-inkscape-font-specification:Magneto;text-align:center;letter-spacing:0px;word-spacing:0px;text-anchor:middle;fill:#000000;fill-opacity:1;stroke:none;stroke-width:0.35371694"
       id="text868">
      <path
         d="m 61.556016,123.74866 q 0,0.75902 -0.611636,1.27486 -0.582159,0.49373 -1.348546,0.49373 -0.862185,0 -1.436975,-0.56742 -0.57479,-0.56742 -0.508468,-1.42961 -0.235811,-0.0295 -0.707434,0.18423 -1.046413,0.47162 -1.282224,3.50032 -0.24318,2.99186 -3.485585,4.10459 h 8.732386 q -0.316871,1.17906 -1.974919,1.17906 H 45.410311 q 0.619005,-1.78332 1.525404,-1.78332 0.405301,0 1.407499,0.32424 1.002198,0.32424 1.444344,0.32424 1.267486,0 2.070718,-2.30653 l 1.171687,-3.39716 q 1.282224,-3.69929 6.389013,-3.69929 0.854816,0 1.466451,0.45689 0.670589,0.50846 0.670589,1.34117 z"
         style="font-style:normal;font-variant:normal;font-weight:normal;font-stretch:normal;font-family:Magneto;-inkscape-font-specification:Magneto;stroke-width:0.35371694"
         id="path4685" />
    </g>
    <g
       aria-label="O"
       style="font-style:normal;font-variant:normal;font-weight:normal;font-stretch:normal;font-size:15.09192276px;line-height:1.25;font-family:Magneto;-inkscape-font-specification:Magneto;text-align:center;letter-spacing:0px;word-spacing:0px;text-anchor:middle;fill:#000000;fill-opacity:1;stroke:none;stroke-width:0.35371694"
       id="text872">
      <path
         d="m 45.027114,140.05649 q 0,2.72657 -2.144409,4.7457 -2.078087,1.95282 -4.672012,1.95282 -1.908597,0 -3.013963,-1.03168 -1.105365,-1.03167 -1.105365,-2.82973 0,-0.92851 0.434777,-1.98966 0.41267,-1.00957 1.090627,-1.82754 h 3.242406 q -0.832709,0.73691 -1.378023,1.88649 -0.552682,1.17906 -0.552682,2.26232 0,0.89166 0.368455,1.51066 0.442146,0.73691 1.274855,0.73691 1.385391,0 2.505494,-1.79069 0.994829,-1.60646 0.994829,-3.08029 0,-1.17168 -0.677957,-1.82016 -0.677958,-0.65585 -1.871752,-0.65585 h -7.273305 l 1.127473,-1.85702 h 6.779575 q 2.063348,0 3.352941,0.84008 1.518036,0.99483 1.518036,2.94764 z"
         style="font-style:normal;font-variant:normal;font-weight:normal;font-stretch:normal;font-family:Magneto;-inkscape-font-specification:Magneto;stroke-width:0.35371694"
         id="path4682" />
    </g>
    <g
       aria-label="P"
       style="font-style:normal;font-variant:normal;font-weight:normal;font-stretch:normal;font-size:15.09192276px;line-height:1.25;font-family:Magneto;-inkscape-font-specification:Magneto;text-align:center;letter-spacing:0px;word-spacing:0px;text-anchor:middle;fill:#000000;fill-opacity:1;stroke:none;stroke-width:0.35371694"
       id="text876">
      <path
         d="m 60.399066,138.73005 q 0,2.18126 -3.013963,3.74351 -2.011765,1.05378 -4.789917,1.59909 l -0.89903,2.56445 h -2.689723 l 2.689723,-7.5607 h 2.667615 l -1.267486,3.54454 q 1.429606,-0.32424 2.534972,-1.00957 1.540142,-0.96535 1.599095,-2.24757 0.03685,-0.82534 -0.552683,-1.08326 -0.353717,-0.15475 -1.274854,-0.15475 h -7.531224 l 1.14958,-1.85702 h 7.590176 q 1.665418,0 2.542341,0.41267 1.245378,0.58216 1.245378,2.04861 z"
         style="font-style:normal;font-variant:normal;font-weight:normal;font-stretch:normal;font-family:Magneto;-inkscape-font-specification:Magneto;stroke-width:0.35371694"
         id="path4679" />
    </g>
    <g
       aria-label="R"
       style="font-style:normal;font-variant:normal;font-weight:normal;font-stretch:normal;font-size:15.09192276px;line-height:1.25;font-family:Magneto;-inkscape-font-specification:Magneto;text-align:center;letter-spacing:0px;word-spacing:0px;text-anchor:middle;fill:#000000;fill-opacity:1;stroke:none;stroke-width:0.35371694"
       id="text880">
      <path
         d="m 45.491367,159.60674 q -0.02948,0.55268 -0.515837,0.88429 -0.442146,0.29477 -1.024305,0.29477 H 41.11412 q -0.582159,0 -0.884292,-0.30951 -0.198966,-0.19896 -0.501099,-0.86955 l -1.451714,-3.21293 q 0.272657,-0.0516 1.260117,-0.42004 0.957983,-0.35371 1.201164,-0.48636 1.466451,-0.75902 1.466451,-1.90123 0,-1.3117 -1.857014,-1.3117 h -7.516485 l 1.14958,-1.85701 h 7.420687 q 4.001423,0 4.001423,2.54971 0,2.15915 -4.163543,3.77298 l 1.326438,2.86658 z m -6.167939,-6.38164 -2.689723,7.5607 h -2.652877 l 2.667616,-7.5607 z"
         style="font-style:normal;font-variant:normal;font-weight:normal;font-stretch:normal;font-family:Magneto;-inkscape-font-specification:Magneto;stroke-width:0.35371694"
         id="path4676" />
    </g>
    <g
       aria-label="S"
       style="font-style:normal;font-variant:normal;font-weight:normal;font-stretch:normal;font-size:15.09192276px;line-height:1.25;font-family:Magneto;-inkscape-font-specification:Magneto;text-align:center;letter-spacing:0px;word-spacing:0px;text-anchor:middle;fill:#000000;fill-opacity:1;stroke:none;stroke-width:0.35371694"
       id="text884">
      <path
         d="m 62.440308,152.20079 q 0,0.72954 -0.582159,1.24538 -0.57479,0.51584 -1.385392,0.51584 -0.810601,0 -1.385391,-0.51584 -0.57479,-0.51584 -0.57479,-1.24538 0,-0.16949 0.05895,-0.44214 -0.33161,-0.0295 -0.420039,-0.0295 -1.120104,0 -1.120104,0.93588 0,0.47899 0.655851,2.1444 0.663219,1.66542 0.663219,2.60867 0,2.01913 -2.232838,3.0287 -1.665418,0.74428 -3.898256,0.74428 -2.041241,0 -3.618229,-0.56742 -2.2181,-0.79587 -2.2181,-2.44655 0,-2.40232 4.089852,-2.40232 h 2.807628 l 0.537944,1.17905 h -2.188623 q -0.82534,0 -1.436975,0.2874 -0.795863,0.37582 -0.795863,1.11273 0,0.83271 1.097996,1.30433 0.847447,0.36109 1.812799,0.36109 1.223271,0 2.041242,-0.53794 0.950614,-0.61901 0.950614,-1.77596 0,-0.79586 -0.604266,-2.28442 -0.604267,-1.48856 -0.604267,-2.3139 0,-2.68972 4.576213,-2.68972 h 1.820169 q 0.751648,0 1.341176,0.50847 0.611636,0.53794 0.611636,1.27485 z"
         style="font-style:normal;font-variant:normal;font-weight:normal;font-stretch:normal;font-family:Magneto;-inkscape-font-specification:Magneto;stroke-width:0.35371694"
         id="path4673" />
    </g>
    <g
       aria-label="W"
       style="font-style:normal;font-variant:normal;font-weight:normal;font-stretch:normal;font-size:15.09192276px;line-height:1.25;font-family:Magneto;-inkscape-font-specification:Magneto;text-align:center;letter-spacing:0px;word-spacing:0px;text-anchor:middle;fill:#000000;fill-opacity:1;stroke:none;stroke-width:0.35371694"
       id="text888">
      <path
         d="m 62.727703,164.56617 -5.217325,9.43245 q -0.523206,0.93587 -1.599095,0.93587 h -0.921138 v -6.55113 l -3.625599,5.64473 q -0.582159,0.9064 -1.717001,0.9064 h -1.046412 l 0.773755,-8.51131 h -3.426632 l 1.134841,-1.85701 h 3.257144 q 0.596897,0 1.024305,0.27265 0.57479,0.37583 0.57479,1.17169 0,0.11791 -0.01474,0.24318 l -0.530575,4.99625 3.515062,-5.57841 q 0.375824,-0.5969 0.670588,-0.8106 0.41267,-0.29476 1.127473,-0.29476 h 0.722172 v 6.53639 l 3.537169,-6.53639 z"
         style="font-style:normal;font-variant:normal;font-weight:normal;font-stretch:normal;font-family:Magneto;-inkscape-font-specification:Magneto;stroke-width:0.35371694"
         id="path4667" />
    </g>
    <g
       aria-label="V"
       style="font-style:normal;font-variant:normal;font-weight:normal;font-stretch:normal;font-size:15.09192276px;line-height:1.25;font-family:Magneto;-inkscape-font-specification:Magneto;text-align:center;letter-spacing:0px;word-spacing:0px;text-anchor:middle;fill:#000000;fill-opacity:1;stroke:none;stroke-width:0.35371694"
       id="text892">
      <path
         d="m 45.351354,166.13579 q -0.0074,0.97272 -0.677957,1.79806 l -4.738333,5.82159 q -0.957984,1.17905 -2.159148,1.17905 h -1.88649 l 0.744279,-8.51131 h -3.411894 l 1.097996,-1.85701 h 3.566646 q 0.596897,0 1.002198,0.36845 0.405301,0.36846 0.405301,0.93588 0,0.0737 -0.0074,0.14738 l -0.766386,7.49438 4.509891,-5.62263 q -0.692696,-0.13264 -1.14958,-0.61163 -0.449516,-0.48636 -0.449516,-1.14221 0,-0.72955 0.57479,-1.24538 0.57479,-0.52321 1.385392,-0.52321 0.81797,0 1.39276,0.52321 0.57479,0.5232 0.567421,1.24538 z"
         style="font-style:normal;font-variant:normal;font-weight:normal;font-stretch:normal;font-family:Magneto;-inkscape-font-specification:Magneto;stroke-width:0.35371694"
         id="path4670" />
    </g>
    <g
       aria-label="Y"
       style="font-style:normal;font-variant:normal;font-weight:normal;font-stretch:normal;font-size:15.09192276px;line-height:1.25;font-family:Magneto;-inkscape-font-specification:Magneto;text-align:center;letter-spacing:0px;word-spacing:0px;text-anchor:middle;fill:#000000;fill-opacity:1;stroke:none;stroke-width:0.35371694"
       id="text896">
      <path
         d="m 46.184063,178.71485 -3.1245,8.9682 q -0.228442,0.64848 -0.788494,1.0243 -0.560052,0.37583 -1.245378,0.37583 h -5.703686 q 0.176859,-0.66322 0.685327,-1.03905 0.508468,-0.38319 1.201163,-0.38319 h 3.183453 l 1.554881,-4.36988 -2.2181,2.35074 q -0.685327,0.72218 -1.827538,0.72218 -0.663219,0 -1.120104,-0.29477 -0.523206,-0.33898 -0.523206,-0.97272 0,-0.30213 0.103168,-0.60427 l 1.55488,-4.35514 h -1.326438 q 0.02948,0.20634 0.02948,0.34635 0,0.72954 -0.57479,1.24538 -0.567421,0.51584 -1.378022,0.51584 -0.810601,0 -1.385391,-0.51584 -0.57479,-0.51584 -0.57479,-1.24538 0,-0.76638 0.604266,-1.28222 0.57479,-0.48636 1.341177,-0.48636 h 4.789917 q 0.508468,0 0.825339,0.30213 0.316872,0.29477 0.316872,0.80323 0,0.2874 -0.103168,0.58216 l -1.569619,4.40673 4.333033,-5.54894 q 0.169489,-0.22107 0.545313,-0.38319 0.375825,-0.16212 0.66322,-0.16212 z"
         style="font-style:normal;font-variant:normal;font-weight:normal;font-stretch:normal;font-family:Magneto;-inkscape-font-specification:Magneto;stroke-width:0.35371694"
         id="path4664" />
    </g>
    <g
       aria-label="z"
       transform="scale(0.80867743,1.236587)"
       style="font-style:normal;font-variant:normal;font-weight:normal;font-stretch:normal;font-size:28.20367241px;line-height:1.25;font-family:Magneto;-inkscape-font-specification:Magneto;text-align:center;letter-spacing:0px;word-spacing:0px;text-anchor:middle;fill:#000000;fill-opacity:1;stroke:none;stroke-width:0.6610235"
       id="text900">
      <path
         d="m 73.997441,151.52114 q -0.647252,2.20341 -3.194947,2.20341 h -8.992675 q -2.589009,0 -2.589009,-1.34959 0,-0.88137 0.702338,-1.61125 l 4.090083,-4.20025 h -4.68225 l 0.757422,-2.20341 h 11.650541 l -6.541379,7.16109 z"
         style="font-style:normal;font-variant:normal;font-weight:normal;font-stretch:normal;font-family:Magneto;-inkscape-font-specification:Magneto;stroke-width:0.6610235"
         id="path4661" />
    </g>
    <g
       aria-label="z"
       transform="scale(0.80867743,1.236587)"
       style="font-style:normal;font-variant:normal;font-weight:normal;font-stretch:normal;font-size:28.20367241px;line-height:1.25;font-family:Magneto;-inkscape-font-specification:Magneto;text-align:center;letter-spacing:0px;word-spacing:0px;text-anchor:middle;fill:#000000;fill-opacity:1;stroke:none;stroke-width:0.6610235"
       id="text4621" />
    <path
       style="opacity:1;fill:#ff40ff;fill-opacity:1;stroke:#000000;stroke-width:1.13228893;stroke-miterlimit:4;stroke-dasharray:none;stroke-dashoffset:0;stroke-opacity:1"
       d="m 125.15512,110.45982 c -6.28461,-0.25454 -12.3882,2.32294 -16.87619,7.12664 l -0.0577,-0.0629 -0.074,0.0807 c -5.62704,-5.79138 -13.557522,-8.08896 -21.078829,-6.10687 -7.973871,2.10458 -14.30381,8.70349 -16.58984,17.29479 -3.854437,27.15056 35.936589,31.93268 37.742639,59.37702 1.782,-27.47081 40.9974,-29.58946 38.0486,-59.7314 -2.28602,-8.59128 -8.61596,-15.1902 -16.58984,-17.2948 -1.4836,-0.39171 -2.99945,-0.62055 -4.52486,-0.68309 z"
       id="path5059"
       inkscape:connector-curvature="0"
       sodipodi:nodetypes="cccccccccc" />
    <g
       id="g5094"
       style="font-style:normal;font-variant:normal;font-weight:normal;font-stretch:normal;font-size:15.09192276px;line-height:1.25;font-family:Magneto;-inkscape-font-specification:Magneto;text-align:center;letter-spacing:0px;word-spacing:0px;text-anchor:middle;fill:#000000;fill-opacity:1;stroke:none;stroke-width:0.35371694"
       aria-label="P"
       transform="translate(53.672619,7.5487896)">
      <path
         id="path5092"
         style="font-style:normal;font-variant:normal;font-weight:normal;font-stretch:normal;font-family:Magneto;-inkscape-font-specification:Magneto;stroke-width:0.35371694"
         d="m 60.399066,138.73005 q 0,2.18126 -3.013963,3.74351 -2.011765,1.05378 -4.789917,1.59909 l -0.89903,2.56445 h -2.689723 l 2.689723,-7.5607 h 2.667615 l -1.267486,3.54454 q 1.429606,-0.32424 2.534972,-1.00957 1.540142,-0.96535 1.599095,-2.24757 0.03685,-0.82534 -0.552683,-1.08326 -0.353717,-0.15475 -1.274854,-0.15475 h -7.531224 l 1.14958,-1.85702 h 7.590176 q 1.665418,0 2.542341,0.41267 1.245378,0.58216 1.245378,2.04861 z"
         inkscape:connector-curvature="0" />
    </g>
  </g>
</svg>
